<svg width="64" height="64" fill="none" xmlns="http://www.w3.org/2000/svg"><path d="M9 57v4h2l-.5-5.6V35.5l3 5.6h-2l3.5 6.2-2.5-1v2l3 7.1-3-1V61H14v-4l4 1-4-9.7 4 1.5-4-7.6 2.5 1-6-10.2-5 10.2 2.5-1-4 7.6 4-1.5-4 9.6 5-1ZM53 41.4V45h2l-.5-5V22.3l3 5h-2l3.5 5.4-2.5-.9v1.8l3 6.4-3-1v6H58v-3.6l4 .9-4-8.7 4 1.4-4-6.8 2.5.9-6-9.1-5 9 2.5-.8-4 6.8 4-1.4-4 8.7 5-1ZM39 21.8V25h2l-.5-4.4V5l3 4.4h-2l3.5 4.8-2.5-.8V15l3 5.6-3-.8V25H44v-3.2l4 .8-4-7.6 4 1.2-4-6 2.5.8-6-8-5 8 2.5-.8-4 6 4-1.2-4 7.6 5-.8ZM24.7 42v4H27l-.6-5.6V20.5l3.5 5.6h-2.3l4 6.2-2.9-1v2l3.4 7.1-3.4-1V46h1.7v-4l4.6 1-4.6-9.7 4.6 1.5-4.6-7.6 2.9 1L26.4 18l-5.7 10.2 2.9-1-4.6 7.6 4.6-1.5-4.6 9.6 5.7-1ZM39.4 58v3H41V41.5l3.2 5.3H42l3.8 4.4-2.7-.7-.5 1.4 3.2 4.4H43V61h1.6v-3h3.8l-2.7-5 3.2 1.5-4.3-7 2.7.8L41 38l-5.4 10.3 2.7-1.5-4.3 7.7 3.8-1.5-3.8 5h5.4ZM11 22v3h1.5V5.5l3 5.3h-2l3.5 4.4-2.5-.7-.5 1.4 3 4.4h-2.5V25H16v-3h3.5L17 17l3 1.5-4-7 2.5.8-6-10.3-5 10.3 2.5-1.5-4 7.7L9.5 17 6 22h5Z" fill="#008968"/></svg>