<svg width="64" height="64" fill="none" xmlns="http://www.w3.org/2000/svg"><path d="M10.8 44.6A18 18 0 0 1 3 46.3V48h20.2c.8 0 2.4-1.7 4.9-1.7 2.5 0 1.6-1.7 2.9-1.7 1.2 0-1.7-4-2.9-5.1-1.2-1.2-.8-4.6 0-5.7.8-1.2 3.3.5 4.5 1.1 1 .5 2 2.5 2.5 3.4-.3.8 0 2.3 3.3 2.3 4.1 0 2.9 0 5.3 2.3 2.5 2.3 3 3.4 3.7 3.4.9 0 2 1.1 3.3 0 1.3-1.1-2-1.7-3.3-1.7-1.2 0-1.6-2.9-3.7-5.1-2-2.3-2.8-1.2-5.3-1.2s-1.3-4.5-5.8-6.8-6.1-1.7-8.6 0-4.1 5.1-5.4 6.8c-1.2 1.7-4.9 4.6-7.8 6.3ZM24.4 19.7c-2 1-5 2.3-6.4 2.3v1.2h7.8c4.9 0 6 .8 9 .8 2 0 3.7-.8 6-.8 2.2 0 5.9.8 6.3 0 .8-1.7-6.3-3.5-6.3-5 0-2.3-.8-3.9 0-4.6.7-.8 3 .3 4 .7 1 .3 3 1.7 3.4 2.3-.3.6.7.7 3.4 1.6 4.9 1.5-.2 1.1 2 2.7 2.3 1.5 2.2 1.1 3 1.1.7 0 1.8.8 3 0 1-.7-.2-1.1-1.3-1.1s-.8.4-2.7-1.2c-1.9-1.5-1.7-3-4-3-2.2 0-2.6-3.1-6.7-4.7-4.1-1.5-5.6-1.1-7.9 0-2.2 1.2-5 3.5-6.1 4.6-1.2 1.2-3.9 2-6.5 3.1ZM40.2 51c-1.2 1-4 2-5.4 2.3-1.3 0-3.7.3-2.5 1.2 1.5 1.1 4.5 0 8 0h7.3c2.5 0-1-1.2-2.4-1.2-1.5 0-1.5-.5 0-2.3 1.4-.8 1.4.9 4.9 1.8 3.5.8 5.4.5 7.4.5s4 0 4.4-.5c.5-.6-2.4-.6-4.4-1-2-.2-5.4-.2-7.4-.8-2-.6-1-2-5-2-3.9 0-3.4.9-4.9 2Z" fill="#5C4A3A"/><path d="M13.4 13c-1 1.2-1.1 2.4-2.2 3-1 0-2.9.2-2 1.4 1.2 1.4 3.6 0 6.4 0h6c1.9 0-.9-1.5-2-1.5-1.3 0-1.3-.7 0-2.9 1.1-1 1.1 1.1 3.9 2.2 2.7 1 4.3.7 6 .7 1.5 0 3 0 3.5-.7.4-.7-2.8-.1-4.4-.5-1.6-.3-3.5-1-5.1-1.7-1.6-.7-2.5-2-5.7-2-3.1 0-3.2.6-4.4 2Z" fill="#5C4A3A"/></svg>