<svg width="64" height="64" viewBox="0 0 64 64" fill="none" xmlns="http://www.w3.org/2000/svg">
<rect x="6" y="21" width="19" height="2" fill="#3C82D3"/>
<rect x="4" y="9" width="13" height="2" fill="#3C82D3"/>
<rect x="21" y="15" width="15" height="2" fill="#3C82D3"/>
<rect x="14" y="3" width="15" height="2" fill="#3C82D3"/>
<rect x="6" y="39" width="8" height="2" fill="#3C82D3"/>
<rect x="19" y="37" width="8" height="2" fill="#3C82D3"/>
<rect x="2" y="32" width="8" height="2" fill="#3C82D3"/>
<rect x="17" y="30" width="17" height="2" fill="#3C82D3"/>
<rect x="21" y="45" width="26" height="2" fill="#3C82D3"/>
<rect x="29" y="9" width="13" height="2" fill="#3C82D3"/>
<rect x="2" y="51" width="13" height="2" fill="#3C82D3"/>
<rect x="45" y="29" width="15" height="2" fill="#3C82D3"/>
<rect x="39" y="19" width="15" height="2" fill="#3C82D3"/>
<rect x="31" y="52" width="8" height="2" fill="#3C82D3"/>
<rect x="17" y="59" width="8" height="2" fill="#3C82D3"/>
<rect x="52" y="51" width="8" height="2" fill="#3C82D3"/>
<rect x="49" y="7" width="8" height="2" fill="#3C82D3"/>
<rect x="37" y="37" width="17" height="2" fill="#3C82D3"/>
<rect x="40" y="59" width="17" height="2" fill="#3C82D3"/>
</svg>
