<svg width="0" height="0" class="hidden">

	<symbol xmlns="http://www.w3.org/2000/svg" viewBox="0 0 20 20" id="close"><path d="M3.21878052,2.15447998 L9.99678993,8.92744993 L16.7026814,2.22182541 C17.1598053,1.8145752 17.6339389,2.05757141 17.8218994,2.2625885 C18.0098599,2.46760559 18.1171875,2.95117187 17.7781746,3.29731856 L11.0707899,10.0014499 L17.7781746,16.7026814 C18.0764771,16.9529419 18.0764771,17.4433594 17.8370056,17.7165527 C17.5975342,17.9897461 17.1575623,18.148407 16.7415466,17.8244324 L9.99678993,11.0754499 L3.24360657,17.8271179 C2.948349,18.0919647 2.46049253,18.038208 2.21878052,17.7746429 C1.9770685,17.5110779 1.8853302,17.0549164 2.19441469,16.7330362 L8.92278993,10.0014499 L2.22182541,3.29731856 C1.97729492,3.02648926 1.89189987,2.53264694 2.22182541,2.22182541 C2.55175094,1.91100387 3.04367065,1.95437622 3.21878052,2.15447998 Z"></path></symbol>

	<symbol xmlns="http://www.w3.org/2000/svg" viewBox="0 0 20 20" id="export"><path d="M19.3107659,12.0514519 C19.6914194,12.0514519 20,12.3646267 20,12.7509475 L20,17.6690264 C19.9938202,18.3388667 19.8725879,18.8692232 19.6014711,19.2629832 C19.2734293,19.7394192 18.692794,19.9546046 17.8541437,20 L1.95063965,19.9982693 C1.30493215,19.9520847 0.783122117,19.6957368 0.444258688,19.2213785 C0.141889579,18.7981068 -0.00168144063,18.2714304 0,17.6625107 L0,12.7509492 C0,12.3646285 0.3085815,12.0514519 0.689234956,12.0514519 C1.06988841,12.0514519 1.37846979,12.3646249 1.37847075,12.7509457 L1.37848021,17.6644834 C1.37755618,17.9967232 1.44266621,18.235573 1.56028228,18.400218 C1.64140402,18.5137764 1.78414309,18.5838993 1.99909415,18.6010088 L17.8165968,18.6020475 C18.2362406,18.5788121 18.4438468,18.5018725 18.4715409,18.4616506 C18.5561601,18.3387527 18.6177678,18.0692372 18.6215319,17.662509 L18.6215319,12.7509475 C18.6215319,12.3646267 18.9301125,12.0514519 19.3107659,12.0514519 Z M9.99004267,0 C10.3706961,0 10.6792767,0.313174842 10.6792767,0.699495587 L10.679,11.569 L13.7412518,8.49006664 C14.0116068,8.2181121 14.4480014,8.22007842 14.7159664,8.49445853 C14.9839314,8.76883864 14.9819939,9.21173039 14.7116389,9.48368493 L10.3562492,13.8648433 C10.0862788,14.136411 9.65063837,14.1348929 9.38251189,13.86145 L5.08653398,9.48029163 C4.81802558,9.20645925 4.81908501,8.76356444 5.08890029,8.4910584 C5.35871558,8.21855235 5.79511316,8.21962756 6.06362157,8.49345994 L9.3,11.794 L9.30080862,0.699495587 C9.30080862,0.313174842 9.60938921,0 9.99004267,0 Z"></path></symbol>
	<symbol xmlns="http://www.w3.org/2000/svg" viewBox="0 0 20 20" id="new"><path d="M12.8890921,0 L17.5,5.19179195 L17.5,19.0909091 C17.5,19.5929861 17.1049571,20 16.6176471,20 L3.38235294,20 C2.89504287,20 2.5,19.5929861 2.5,19.0909091 L2.5,0.909090909 C2.5,0.407013864 2.89504287,0 3.38235294,0 L12.8890921,0 Z M12.3061651,1.36363636 L3.82352941,1.36363636 L3.82352941,18.6363636 L16.1764706,18.6363636 L16.176511,6.34246852 L13.3474204,6.34196239 C12.6417682,6.36999151 12.0962002,6.25589945 11.706457,5.94817639 C11.2531904,5.59029821 11.0867064,4.98037308 11.10865,4.16662087 L11.10865,1.36739306 L12.31,1.367 L12.3061651,1.36363636 Z M12.384,1.45 L12.4321669,1.50876156 L12.4319299,4.18534141 C12.4202482,4.62352755 12.4794774,4.84051752 12.5115121,4.86581065 C12.6070703,4.9412589 12.8701302,4.99627139 13.3219266,4.97883216 L15.5154486,4.97883216 L15.8904383,5.40279396 L16.1764706,5.7215246 L12.384,1.45 Z"></path></symbol>

	<symbol xmlns="http://www.w3.org/2000/svg" viewBox="0 0 20 20" id="open"><path d="M2.28207116,3.82782681 C1.93139275,3.89061436 1.7157592,4.01654323 1.59095975,4.20187553 C1.42601097,4.44683125 1.35229976,4.7111041 1.36642402,5.04312449 L1.36642402,16.7613195 L0.00219214494,15.8199344 L0.00283001003,5.07182967 C-0.0229451366,4.49213499 0.127444335,3.95295167 0.449958452,3.47400497 C0.806771203,2.94412338 1.37895412,2.62368924 2.11578248,2.50841391 L2.22403448,2.5 L5.78364338,2.50089037 C6.52617637,2.53835758 7.13918702,2.8504057 7.5673719,3.41670863 C7.95383536,3.9278322 8.03930749,4.3271066 8.05143177,5.05577361 C8.05289264,5.14357156 8.05441458,5.20651435 8.05673655,5.25714322 C8.10252727,5.25681998 8.16561873,5.2543483 8.24999125,5.24771098 L13.8860925,5.24771098 L13.9870677,5.25502564 C14.5731461,5.34040977 15.0767664,5.58357289 15.475608,5.97894537 C15.9106992,6.41025215 16.1077382,7.00704635 16.0901105,7.71349439 L16.0901105,9.51198092 L14.7258786,9.51198092 L14.7260752,7.69755466 C14.7356739,7.3085356 14.6533055,7.05905711 14.5021591,6.90922534 C14.3244518,6.73306379 14.1070169,6.62340783 13.8308199,6.57550784 L8.31495364,6.57252008 C7.46062988,6.65207335 6.81082721,6.32129645 6.71389794,5.55548458 C6.69584787,5.41287583 6.69119406,5.30657387 6.68737876,5.0772749 C6.67947407,4.60220433 6.64376562,4.43539594 6.46860999,4.203741 C6.28652585,3.96292263 6.05309487,3.84409647 5.7483285,3.82782681 L2.28207116,3.82782681 Z M18.0541929,9.33232428 C18.8851491,9.34586199 19.5133485,9.63622951 19.8235275,10.2404607 C20.1178599,10.8138226 20.0344287,11.465691 19.6446869,12.1495456 L19.5904006,12.2303314 L16.7469081,15.8558964 C16.4072818,16.3040608 16.0164881,16.6739616 15.575319,16.9622577 C15.092264,17.2779256 14.4871575,17.4527498 13.7239643,17.5 L2.01621448,17.5 C1.38335385,17.5 0.88557293,17.3585887 0.543818101,17.0226149 C0.123275488,16.6091861 -0.0449570231,16.173181 0.0125925563,15.6292076 C0.0484070969,15.2906793 0.182045605,14.9606796 0.427887186,14.6070125 L3.8727539,10.7736483 C4.41137054,10.2157011 4.89226434,9.83387624 5.33785369,9.627461 C5.74163234,9.44041419 6.22593684,9.34520596 6.78220116,9.33260234 L18.0541929,9.33232428 Z M7.01197487,10.6599374 C6.53566393,10.6510962 6.1729768,10.7111445 5.92413292,10.8264192 C5.65941708,10.9490464 5.29955756,11.2347713 4.91080662,11.632703 L1.53497688,15.3817716 C1.43257155,15.5300848 1.38107021,15.6572594 1.36964886,15.7652169 C1.35499848,15.9036961 1.37308811,15.9505786 1.51328084,16.0883999 C1.55206873,16.1265317 1.71273115,16.1721732 2.01621448,16.1721732 L13.6793641,16.1735939 C14.173415,16.1420849 14.5490628,16.0335548 14.8148728,15.8598527 C15.1225687,15.6587788 15.4003536,15.3958451 15.6557597,15.0589677 L18.4741643,11.4652437 C18.6444618,11.1539559 18.6664278,10.9572147 18.6031488,10.8339467 C18.5530343,10.7363234 18.4008596,10.6659849 18.042777,10.6600581 L7.01197487,10.6599374 Z"></path></symbol>

	<symbol xmlns="http://www.w3.org/2000/svg" viewBox="0 0 20 20" id="save"><path d="M2.72727273,1.36363636 C1.97415716,1.36363636 1.36363636,1.97415716 1.36363636,2.72727273 L1.36363636,17.2727273 C1.36363636,18.0258428 1.97415716,18.6363636 2.72727273,18.6363636 L17.2727273,18.6363636 C18.0258428,18.6363636 18.6363636,18.0258428 18.6363636,17.2727273 L18.6363636,2.72727273 C18.6363636,1.97415716 18.0258428,1.36363636 17.2727273,1.36363636 L2.72727273,1.36363636 Z M17.2727273,0 C18.7789584,0 20,1.22104159 20,2.72727273 L20,17.2727273 C20,18.7789584 18.7789584,20 17.2727273,20 L2.72727273,20 C1.22104159,20 0,18.7789584 0,17.2727273 L0,2.72727273 C0,1.22104159 1.22104159,0 2.72727273,0 L17.2727273,0 Z M13.9551121,2.43531901 C13.5785543,2.43531901 13.2732939,2.74057941 13.2732939,3.1171372 L13.2732939,3.1171372 L13.2732939,5 C13.2732939,5.37655778 13.5785543,5.68181818 13.9551121,5.68181818 C14.3316699,5.68181818 14.6369303,5.37655778 14.6369303,5 L14.6369303,5 L14.6369303,3.1171372 C14.6369303,2.74057941 14.3316699,2.43531901 13.9551121,2.43531901 Z M2.74352037,0.93895244 L4.10714316,0.945037251 L4.08570734,5.39140486 C4.05609642,5.79699746 4.18569012,6.12543845 4.50077186,6.42819766 C4.81430953,6.72947317 5.24532108,6.86648432 5.88464139,6.82809445 L14.5095222,6.83246994 C14.992486,6.77748966 15.3312375,6.61903949 15.5594272,6.36310688 C15.7883676,6.10633222 15.9058504,5.76031939 15.9048323,5.29028972 L15.9049552,0.941975576 L17.2685916,0.942014114 L17.2685916,5.28882981 C17.2701781,6.07752771 17.0421196,6.74921064 16.57725,7.27059836 C16.1116296,7.79282813 15.4625833,8.09641797 14.5866418,8.19173081 L5.9269026,8.19041981 C4.96826314,8.24995374 4.16175588,7.99357897 3.55595447,7.41146986 C2.95169713,6.83084443 2.66618136,6.10723611 2.72388756,5.33871738 L2.74352037,0.93895244 Z"></path></symbol>

	<symbol xmlns="http://www.w3.org/2000/svg" viewBox="0 0 20 20" id="setting"><path d="M11.078035,0 C11.3724371,0 11.6350302,0.183056678 11.7339285,0.457230801 L12.4396543,2.41370379 C12.6930786,2.47650967 12.9108093,2.54030436 13.0942558,2.60592238 C13.2952001,2.67779926 13.5540423,2.78741449 13.8746747,2.93586046 L15.5184936,2.06596774 C15.794148,1.92009416 16.1343396,1.97375545 16.3504064,2.19719235 L17.7960017,3.69209722 C17.98787,3.8905102 18.0422042,4.18265582 17.9342767,4.43557836 L17.162857,6.24336136 C17.2913496,6.47797752 17.3939318,6.67854463 17.4711247,6.84658462 C17.5553742,7.02998593 17.6588292,7.28241713 17.7829588,7.60671302 L19.580333,8.37623211 C19.8497082,8.4915611 20.0170118,8.76152727 19.9986241,9.05119919 L19.8669066,11.126215 C19.8494975,11.4004703 19.668825,11.6382294 19.4072566,11.7310995 L17.7049419,12.3355083 C17.6562729,12.5705675 17.6053791,12.772402 17.551477,12.9424906 C17.4883274,13.1417599 17.389065,13.3979932 17.2526724,13.7155635 L18.1084613,15.6068822 C18.2316885,15.879218 18.1635045,16.1990386 17.9395819,16.3990196 L16.3138559,17.8509252 C16.0957241,18.0457347 15.7773686,18.084139 15.5182641,17.9469002 L13.8421792,17.0591354 C13.5477413,17.2124998 13.2783109,17.3348831 13.0324612,17.4263047 C12.8127426,17.5080092 12.5685018,17.5992352 12.2997543,17.6999771 L11.6499659,19.5002547 C11.5529743,19.7689756 11.2984077,19.9507082 11.0099151,19.9571805 L9.10927684,20 C8.81300029,20.0064684 8.54492708,19.8269822 8.44118272,19.5525044 L7.6751041,17.5256808 C7.3232066,17.4026533 7.06612795,17.3070148 6.89898146,17.2366139 C6.74058527,17.1698987 6.53544077,17.0722593 6.28058727,16.9426265 L4.38190658,17.7549437 C4.12577479,17.8645252 3.82821583,17.812324 3.62584584,17.6223069 L2.22106797,16.3032781 C2.00593124,16.1012735 1.94386481,15.7866753 2.0664447,15.519534 L2.88322205,13.7395109 C2.76017205,13.4979963 2.65957084,13.2838441 2.58116863,13.0959926 C2.49857708,12.8981035 2.39862152,12.628586 2.28009144,12.2848943 L0.491710371,11.7412063 C0.190471763,11.6496264 -0.0110085834,11.3694211 0.000465944291,11.0580168 L0.071249487,9.13703967 C0.0806273232,8.88253689 0.2313194,8.65393727 0.463026654,8.5427144 L2.34096885,7.64127468 C2.42759746,7.32228988 2.50386559,7.07419005 2.57165467,6.89274074 C2.63878533,6.7130538 2.74293335,6.47740464 2.8854431,6.18143219 L2.06997455,4.45996626 C1.94312228,4.19217928 2.00336838,3.87420996 2.21965377,3.66998322 L3.62443163,2.34352648 C3.82439931,2.15470767 4.11840992,2.10075785 4.37358276,2.20606012 L6.27210909,2.98952564 C6.4823493,2.85093927 6.67247185,2.73658268 6.84371422,2.6461118 C7.04934485,2.53747289 7.3225817,2.42318736 7.66837893,2.29976859 L8.32789678,0.458652854 C8.42637398,0.183743082 8.68933933,0 8.98430143,0 L11.078035,0 Z M10.0237083,7.01854658 C8.35715373,7.01854658 7.00614429,8.35435786 7.00614429,10.0021646 C7.00614429,11.6499713 8.35715373,12.9857826 10.0237083,12.9857826 C11.6902629,12.9857826 13.0412723,11.6499713 13.0412723,10.0021646 C13.0412723,8.35435786 11.6902629,7.01854658 10.0237083,7.01854658 Z"></path></symbol>

	<symbol xmlns="http://www.w3.org/2000/svg" viewBox="0 0 64 64" id="brush"><path d="M63.46875 1.76172c-.33594-.32031-.82422-.47266-1.44531-.47266-4.98438 0-18.47657 9.90235-29.8125 21.46875-6.46875 6.59766-9.76953 11.21875-11.05078 14.55469.97656.32813 1.96875.78516 2.97656 1.38672.78906.46875 1.52344 1.02344 2.1914 1.64844h.00391c1.2539 1.17187 2.24219 2.59375 2.90625 4.17968 3.29688-1.47265 7.76563-4.86328 13.99219-11.21875 12.75-13.0039 23.28516-28.6328 20.23828-31.54687ZM22.74609 40.39844c-1.73437-1.03125-3.37109-1.63282-4.96875-1.82422-.37109-.04688-.74218-.0664-1.11718-.0664-1.25391.0039-2.4961.2539-3.65625.72655-4.66797 1.87891-5.125 6.29688-5.52735 10.19532-.5 4.85547-1.05469 7.88281-5.97265 8.92968-.89844.19532-1.52735 1.00391-1.5 1.92188.03125.91797.71093 1.6836 1.62109 1.82031 2.75.40625 5.36328.60938 7.76172.60938 5.23437 0 9.55078-.95313 12.82812-2.83203 3.00782-1.72657 5.01954-4.17578 5.82032-7.08985.43359-1.57812.48437-3.23437.15234-4.83593-.6211-3.04297-2.54688-5.83204-5.4414-7.5547Zm0 0"/></symbol>

	<symbol xmlns="http://www.w3.org/2000/svg" viewBox="0 0 64 64" id="palette"><path d="M46.64844 44.9414c-3.40235 4.9922-7.3711 9.9375-10.95703 13.64454-1.1211 1.16797-2.29688 2.28515-3.52344 3.34375 10.70312-.20313 20.76562-6.04297 15.23047-15.8125-.2461-.39844-.4961-.78907-.75-1.17578Zm-23.85547 5.03126c0-1.35157.60937-2.62891 1.66015-3.47657 1.0547-.85156 2.4336-1.17968 3.75391-.89453 1.79688-3.33984 3.75781-6.58984 5.875-9.73828 1.66406-2.47656 3.20313-4.54687 4.63672-6.2461-.24219-2.5-.0664-5.47265.70703-9.1953 3.91406-18.8086-28.10937-31.98047-37.4961-1.59376-5.80859 18.76954 1.78907 32.84766 18.76954 40.89454.58984.26953 1.1875.51562 1.79687.73047.16016-1.78516.82032-4.125 1.97657-6.9922-1.0625-.84765-1.6836-2.1328-1.6797-3.48827ZM7.63672 28.21094c-.03125-1.61719.8164-3.125 2.21094-3.9414 1.39453-.81641 3.12109-.81641 4.51562 0 1.39844.8164 2.24219 2.32421 2.21094 3.9414-.04297 2.4336-2.03125 4.38672-4.46875 4.38672-2.4336 0-4.42188-1.95313-4.46875-4.38672Zm8.26953 17.29297c-2.46875 0-4.46875-2-4.47266-4.46875 0-2.46875 2-4.46875 4.46875-4.46875s4.46875 2 4.46875 4.46875-2 4.46875-4.46875 4.46875Zm3.6914-32.71094c0-3.14453 2.54688-5.69531 5.69141-5.69531 3.14844 0 5.69532 2.55078 5.69532 5.6953 0 3.14454-2.54688 5.69532-5.69532 5.69532-3.14453 0-5.6914-2.55078-5.6914-5.69531Zm0 0"/><path d="M47.26953 29.48828c-1.08594-.6914-2.01172-1.60547-2.71875-2.6836-2.23047 1.53516-5.0625 4.64844-8.78906 10.1875-7.625 11.33595-13.26172 24.3047-10.61719 26.03907.21485.13281.46485.19922.71875.1914 3.41016 0 12.42188-9.47265 19.47266-19.95312 3.86718-5.7539 5.67187-9.61328 6.16406-12.2461-.76563-.10937-1.5625-.3125-2.39063-.61718-.64453-.23828-1.26171-.54688-1.83984-.91797ZM63.96875 11.1836c-.14844-.67578-.75781-1.14843-1.44922-1.12109-5.51953.20703-9.92969 1.28125-13.10937 3.1914-3.6172 2.17579-4.73438 4.85548-5.03125 6.72657-.21875 1.40234-.0547 2.83594.48437 4.15234.8711 2.15235 2.66797 3.94922 5.04297 4.82813 1.2461.46093 2.3711.6836 3.4336.6836 1.38671-.00391 2.74609-.40235 3.91015-1.15626 3.1875-2.02344 2.92188-5.34375 2.6875-8.27734-.29688-3.64844-.30078-5.96094 3.1836-7.40625.63671-.26172.99218-.94532.84765-1.6211Zm0 0"/></symbol>

	<symbol xmlns="http://www.w3.org/2000/svg" viewBox="0 0 16 16" id="eraser"><path d="M8.086 2.207a2 2 0 0 1 2.828 0l3.879 3.879a2 2 0 0 1 0 2.828l-5.5 5.5A2 2 0 0 1 7.879 15H5.12a2 2 0 0 1-1.414-.586l-2.5-2.5a2 2 0 0 1 0-2.828l6.879-6.879zm.66 11.34L3.453 8.254 1.914 9.793a1 1 0 0 0 0 1.414l2.5 2.5a1 1 0 0 0 .707.293H7.88a1 1 0 0 0 .707-.293l.16-.16z"/></symbol>

	<symbol xmlns="http://www.w3.org/2000/svg" viewBox="-4 -4 72 72" id="cursor"><path d="M53.2461 64c-.60938 0-1.19532-.24219-1.62891-.67578L33.76953 45.46875 26.2461 58.49609c-.4414.76172-1.27734 1.20703-2.15625 1.14453-.8789-.0664-1.64453-.625-1.97265-1.4453L.17969 3.15233C-.16406 2.29687.03906 1.32422.6875.67578c.65234-.65234 1.625-.85156 2.48047-.51172l55.01562 21.94922c.82032.32813 1.37891 1.09375 1.44532 1.97266.0625.8789-.38282 1.71484-1.14453 2.15625l-13.02344 7.52734L63.3125 51.62891c.89844.89843.89844 2.35547 0 3.2539l-8.4414 8.4414c-.4297.4336-1.01563.67579-1.625.67579ZM33.27733 39.42187c.60547 0 1.19141.23829 1.625.67188L53.2461 58.44531l5.1875-5.1914-18.34375-18.35157c-.5078-.5039-.75-1.21484-.65625-1.92578.09375-.70703.51172-1.33203 1.12891-1.6914l11.51563-6.65235L6.43359 6.42188l18.20313 45.66406 6.64844-11.51563c.35546-.6211.98046-1.03906 1.6914-1.1289.09766-.01563.19922-.01953.30078-.01953Zm0 0"/></symbol>

	<symbol xmlns="http://www.w3.org/2000/svg" viewBox="0 0 20 20" id="zoom-plus"><path d="M8.19546398,0 C12.7216937,0 16.390928,3.61950128 16.390928,8.08438239 C16.390928,10.0960164 15.6461041,11.9360453 14.4136555,13.3507563 L19.8015213,18.8243429 C20.0717775,19.0989162 20.0652194,19.5376183 19.7868733,19.8042115 C19.5085273,20.0708046 19.0637973,20.0643354 18.7935411,19.7897621 L13.4110382,14.3206504 C11.9940161,15.4751548 10.1768537,16.1687648 8.19546398,16.1687648 C3.6692342,16.1687648 0,12.5492635 0,8.08438239 C0,3.61950128 3.6692342,0 8.19546398,0 Z M8.19546398,1.38589412 C4.44515931,1.38589412 1.40493668,4.38490947 1.40493668,8.08438239 C1.40493668,11.7838553 4.44515931,14.7828707 8.19546398,14.7828707 C11.9457686,14.7828707 14.9859913,11.7838553 14.9859913,8.08438239 C14.9859913,4.38490947 11.9457686,1.38589412 8.19546398,1.38589412 Z M8.30516902,3.57538731 C8.68787312,3.57538731 8.99811609,3.8898931 8.99811609,4.27785565 L8.998,7.254 L11.9742775,7.25401709 C12.3622401,7.25401709 12.6767459,7.56426005 12.6767459,7.94696415 C12.6767459,8.32966824 12.3622401,8.63991121 11.9742775,8.63991121 L8.998,8.639 L8.99811609,11.6160727 C8.99811609,12.0040352 8.68787312,12.318541 8.30516902,12.318541 C7.92246493,12.318541 7.61222196,12.0040352 7.61222196,11.6160727 L7.612,8.639 L4.63606052,8.63991121 C4.24809797,8.63991121 3.93359218,8.32966824 3.93359218,7.94696415 C3.93359218,7.56426005 4.24809797,7.25401709 4.63606052,7.25401709 L7.612,7.254 L7.61222196,4.27785565 C7.61222196,3.8898931 7.92246493,3.57538731 8.30516902,3.57538731 Z"/></symbol>

	<symbol xmlns="http://www.w3.org/2000/svg" viewBox="0 0 20 20" id="zoom-minus"><path d="M8.19546398,0 C12.7216937,0 16.390928,3.61950128 16.390928,8.08438239 C16.390928,10.0960164 15.6461041,11.9360453 14.4136555,13.3507563 L19.8015213,18.8243429 C20.0717775,19.0989162 20.0652194,19.5376183 19.7868733,19.8042115 C19.5085273,20.0708046 19.0637973,20.0643354 18.7935411,19.7897621 L13.4110382,14.3206504 C11.9940161,15.4751548 10.1768537,16.1687648 8.19546398,16.1687648 C3.6692342,16.1687648 0,12.5492635 0,8.08438239 C0,3.61950128 3.6692342,0 8.19546398,0 Z M8.19546398,1.38589412 C4.44515931,1.38589412 1.40493668,4.38490947 1.40493668,8.08438239 C1.40493668,11.7838553 4.44515931,14.7828707 8.19546398,14.7828707 C11.9457686,14.7828707 14.9859913,11.7838553 14.9859913,8.08438239 C14.9859913,4.38490947 11.9457686,1.38589412 8.19546398,1.38589412 Z M11.9742775,7.25401709 C12.3622401,7.25401709 12.6767459,7.56426005 12.6767459,7.94696415 C12.6767459,8.32966824 12.3622401,8.63991121 11.9742775,8.63991121 L4.63606052,8.63991121 C4.24809797,8.63991121 3.93359218,8.32966824 3.93359218,7.94696415 C3.93359218,7.56426005 4.24809797,7.25401709 4.63606052,7.25401709 L11.9742775,7.25401709 Z"/></symbol>

	
	<symbol xmlns="http://www.w3.org/2000/svg" viewBox="0 0 20 20" id="plus"><path d="M10,-1.77635684e-15 C10.4232029,-1.69861573e-15 10.7662767,0.343073746 10.7662767,0.766276659 L10.766,9.233 L19.2337233,9.23372334 C19.6569263,9.23372334 20,9.57679709 20,10 C20,10.4232029 19.6569263,10.7662767 19.2337233,10.7662767 L10.766,10.766 L10.7662767,19.2337233 C10.7662767,19.6569263 10.4232029,20 10,20 C9.57679709,20 9.23372334,19.6569263 9.23372334,19.2337233 L9.233,10.766 L0.766276659,10.7662767 C0.343073746,10.7662767 0,10.4232029 0,10 C0,9.57679709 0.343073746,9.23372334 0.766276659,9.23372334 L9.233,9.233 L9.23372334,0.766276659 C9.23372334,0.343073746 9.57679709,-1.85409795e-15 10,-1.77635684e-15 Z"/></symbol>

	<symbol xmlns="http://www.w3.org/2000/svg" viewBox="0 0 20 20" id="minus"><path d="M0.7,10.4 C0.313400675,10.4 0,10.0865993 0,9.7 C0,9.31340068 0.313400675,9 0.7,9 L19.3055622,9 C19.6921615,9 20.0055622,9.31340068 20.0055622,9.7 C20.0055622,10.0865993 19.6921615,10.4 19.3055622,10.4 L0.7,10.4 Z"/></symbol>

</svg>